<svg width="900" viewBox="0 0 900 1020" xmlns="http://www.w3.org/2000/svg" font-family="ui-sans-serif, system-ui, -apple-system, sans-serif">
  <defs>
    <marker id="arrow" viewBox="0 0 10 10" refX="8" refY="5" markerWidth="6" markerHeight="6" orient="auto-start-reverse">
      <path d="M2 1L8 5L2 9" fill="none" stroke="#6b7280" stroke-width="1.5" stroke-linecap="round" stroke-linejoin="round"/>
    </marker>
    <marker id="arrow-amber" viewBox="0 0 10 10" refX="8" refY="5" markerWidth="6" markerHeight="6" orient="auto-start-reverse">
      <path d="M2 1L8 5L2 9" fill="none" stroke="#b45309" stroke-width="1.5" stroke-linecap="round" stroke-linejoin="round"/>
    </marker>
  </defs>

  <!-- Background -->
  <rect width="900" height="1020" fill="#0f1a15" rx="16"/>

  <!-- ─────────────────────────────────────────── -->
  <!-- LAYER 1: Scripts / OS -->
  <!-- ─────────────────────────────────────────── -->
  <text x="36" y="36" fill="#6b9e84" font-size="11" font-weight="500" letter-spacing="0.08em" text-transform="uppercase">CAMADA DE SCRIPTS / OS</text>
  <rect x="24" y="44" width="852" height="110" rx="10" fill="none" stroke="#2a3d34" stroke-width="1" stroke-dasharray="5 3"/>

  <!-- start-linux.sh -->
  <rect x="40" y="58" width="158" height="56" rx="7" fill="#1a2820" stroke="#354d42" stroke-width="0.5"/>
  <text x="119" y="82" fill="#c4ddd1" font-size="13" font-weight="500" text-anchor="middle">start-linux.sh</text>
  <text x="119" y="99" fill="#6b9e84" font-size="11" text-anchor="middle">Bun · pid · log</text>

  <!-- stop-linux.sh -->
  <rect x="40" y="120" width="158" height="22" rx="5" fill="#161e1b" stroke="#2a3d34" stroke-width="0.5"/>
  <text x="119" y="135" fill="#4d7a63" font-size="11" text-anchor="middle">stop-linux.sh</text>

  <!-- start-windows.ps1 -->
  <rect x="216" y="58" width="176" height="56" rx="7" fill="#1a2820" stroke="#354d42" stroke-width="0.5"/>
  <text x="304" y="82" fill="#c4ddd1" font-size="13" font-weight="500" text-anchor="middle">start-windows.ps1</text>
  <text x="304" y="99" fill="#6b9e84" font-size="11" text-anchor="middle">Bun · pid · log</text>

  <!-- stop-windows.ps1 -->
  <rect x="216" y="120" width="176" height="22" rx="5" fill="#161e1b" stroke="#2a3d34" stroke-width="0.5"/>
  <text x="304" y="135" fill="#4d7a63" font-size="11" text-anchor="middle">stop-windows.ps1</text>

  <!-- systemd (Linux) -->
  <rect x="410" y="58" width="168" height="56" rx="7" fill="#1a2820" stroke="#354d42" stroke-width="0.5"/>
  <text x="494" y="82" fill="#c4ddd1" font-size="13" font-weight="500" text-anchor="middle">systemd (Linux)</text>
  <text x="494" y="99" fill="#6b9e84" font-size="11" text-anchor="middle">enable / disable autostart</text>

  <!-- Task Scheduler -->
  <rect x="596" y="58" width="168" height="56" rx="7" fill="#1a2820" stroke="#354d42" stroke-width="0.5"/>
  <text x="680" y="82" fill="#c4ddd1" font-size="13" font-weight="500" text-anchor="middle">Task Scheduler</text>
  <text x="680" y="99" fill="#6b9e84" font-size="11" text-anchor="middle">autostart Windows</text>

  <!-- Arrow: scripts → process -->
  <line x1="450" y1="154" x2="450" y2="181" stroke="#2a3d34" stroke-width="1" marker-end="url(#arrow)"/>

  <!-- ─────────────────────────────────────────── -->
  <!-- LAYER 2: Processo Bun -->
  <!-- ─────────────────────────────────────────── -->
  <text x="36" y="176" fill="#6b9e84" font-size="11" font-weight="500" letter-spacing="0.08em">PROCESSO BUN (RUNTIME)</text>
  <rect x="24" y="184" width="852" height="68" rx="10" fill="none" stroke="#1d4d38" stroke-width="1" stroke-dasharray="5 3"/>

  <rect x="120" y="196" width="660" height="44" rx="7" fill="#0e2d22" stroke="#1d6b4a" stroke-width="0.5"/>
  <text x="450" y="214" fill="#7ee8b4" font-size="13" font-weight="500" text-anchor="middle">bun src/server/index.js</text>
  <text x="450" y="230" fill="#3d9e6e" font-size="11" text-anchor="middle">HTTP :5767  ·  Elysia framework  ·  serve static dist/</text>

  <!-- Arrow: Bun → Server -->
  <line x1="450" y1="252" x2="450" y2="278" stroke="#2a3d34" stroke-width="1" marker-end="url(#arrow)"/>

  <!-- ─────────────────────────────────────────── -->
  <!-- LAYER 3: Servidor -->
  <!-- ─────────────────────────────────────────── -->
  <text x="36" y="274" fill="#6b9e84" font-size="11" font-weight="500" letter-spacing="0.08em">CAMADA DE SERVIDOR (src/server/)</text>
  <rect x="24" y="282" width="852" height="262" rx="10" fill="none" stroke="#1d4d38" stroke-width="1" stroke-dasharray="5 3"/>

  <!-- index.js (router) -->
  <rect x="40" y="296" width="820" height="54" rx="7" fill="#0e2d22" stroke="#1d6b4a" stroke-width="0.5"/>
  <text x="450" y="318" fill="#7ee8b4" font-size="13" font-weight="500" text-anchor="middle">index.js — roteador Elysia</text>
  <text x="450" y="335" fill="#3d9e6e" font-size="11" text-anchor="middle">/api/auth  ·  /api/settings  ·  /api/artifacts  ·  /api/sync  ·  /api/logs  ·  /api/pick-directory</text>

  <!-- Arrows: index → row2 modules -->
  <line x1="160" y1="350" x2="160" y2="370" stroke="#2a3d34" stroke-width="1" marker-end="url(#arrow)"/>
  <line x1="306" y1="350" x2="306" y2="370" stroke="#2a3d34" stroke-width="1" marker-end="url(#arrow)"/>
  <line x1="464" y1="350" x2="464" y2="370" stroke="#2a3d34" stroke-width="1" marker-end="url(#arrow)"/>
  <line x1="640" y1="350" x2="640" y2="370" stroke="#2a3d34" stroke-width="1" marker-end="url(#arrow)"/>

  <!-- auth.js -->
  <rect x="40" y="370" width="196" height="56" rx="7" fill="#1e1a2e" stroke="#4a3d7a" stroke-width="0.5"/>
  <text x="138" y="392" fill="#c4b8f0" font-size="13" font-weight="500" text-anchor="middle">auth.js</text>
  <text x="138" y="409" fill="#7a6db0" font-size="11" text-anchor="middle">Cookie HMAC · sessão 12h</text>

  <!-- config.js -->
  <rect x="248" y="370" width="160" height="56" rx="7" fill="#1a2820" stroke="#354d42" stroke-width="0.5"/>
  <text x="328" y="392" fill="#c4ddd1" font-size="13" font-weight="500" text-anchor="middle">config.js</text>
  <text x="328" y="409" fill="#6b9e84" font-size="11" text-anchor="middle">HOST · PORT · DATA_DIR</text>

  <!-- db.js -->
  <rect x="420" y="370" width="174" height="56" rx="7" fill="#0e1e30" stroke="#1d4a6b" stroke-width="0.5"/>
  <text x="507" y="392" fill="#90c4e8" font-size="13" font-weight="500" text-anchor="middle">db.js</text>
  <text x="507" y="409" fill="#3d7e9e" font-size="11" text-anchor="middle">bun:sqlite · 5 tabelas</text>

  <!-- folder-picker.js -->
  <rect x="606" y="370" width="196" height="56" rx="7" fill="#1a2820" stroke="#354d42" stroke-width="0.5"/>
  <text x="704" y="392" fill="#c4ddd1" font-size="13" font-weight="500" text-anchor="middle">folder-picker.js</text>
  <text x="704" y="409" fill="#6b9e84" font-size="11" text-anchor="middle">osascript / zenity / shell</text>

  <!-- Arrows: index → row3 modules -->
  <line x1="180" y1="350" x2="180" y2="438" stroke="#2a3d34" stroke-width="0.5" stroke-dasharray="3 2"/>
  <line x1="180" y1="438" x2="180" y2="452" stroke="#2a3d34" stroke-width="1" marker-end="url(#arrow)"/>
  <line x1="536" y1="350" x2="536" y2="438" stroke="#b45309" stroke-width="0.5" stroke-dasharray="3 2"/>
  <line x1="536" y1="438" x2="536" y2="452" stroke="#b45309" stroke-width="1" marker-end="url(#arrow-amber)"/>

  <!-- remote-api.js -->
  <rect x="40" y="452" width="258" height="56" rx="7" fill="#2d1910" stroke="#7a3d1d" stroke-width="0.5"/>
  <text x="169" y="474" fill="#f0b483" font-size="13" font-weight="500" text-anchor="middle">remote-api.js</text>
  <text x="169" y="491" fill="#a0673a" font-size="11" text-anchor="middle">fetch streaming · sha256 · stall timeout</text>

  <!-- sync-manager.js -->
  <rect x="312" y="452" width="548" height="56" rx="7" fill="#221b08" stroke="#7a5a0d" stroke-width="0.5"/>
  <text x="586" y="474" fill="#fde68a" font-size="13" font-weight="500" text-anchor="middle">sync-manager.js</text>
  <text x="586" y="491" fill="#a07820" font-size="11" text-anchor="middle">scheduler · runSyncLoop · retry 3x · cleanup stale on boot</text>

  <!-- Arrow sync-manager → remote-api -->
  <line x1="312" y1="480" x2="300" y2="480" stroke="#b45309" stroke-width="1" marker-end="url(#arrow-amber)"/>

  <!-- Arrow: Server → Data -->
  <line x1="450" y1="544" x2="450" y2="570" stroke="#2a3d34" stroke-width="1" marker-end="url(#arrow)"/>

  <!-- ─────────────────────────────────────────── -->
  <!-- LAYER 4: Dados -->
  <!-- ─────────────────────────────────────────── -->
  <text x="36" y="566" fill="#6b9e84" font-size="11" font-weight="500" letter-spacing="0.08em">CAMADA DE DADOS (data/runtime/)</text>
  <rect x="24" y="574" width="852" height="110" rx="10" fill="none" stroke="#1d4a6b" stroke-width="1" stroke-dasharray="5 3"/>

  <!-- duckpull.db -->
  <rect x="40" y="588" width="310" height="80" rx="7" fill="#0e1e30" stroke="#1d4a6b" stroke-width="0.5"/>
  <text x="195" y="610" fill="#90c4e8" font-size="13" font-weight="500" text-anchor="middle">duckpull.db (SQLite · WAL)</text>
  <text x="195" y="628" fill="#3d7e9e" font-size="11" text-anchor="middle">app_config · remote_sources · artifacts</text>
  <text x="195" y="644" fill="#3d7e9e" font-size="11" text-anchor="middle">artifact_sync_state · sync_logs</text>

  <!-- PID + Log -->
  <rect x="364" y="588" width="152" height="36" rx="7" fill="#1a2820" stroke="#354d42" stroke-width="0.5"/>
  <text x="440" y="610" fill="#c4ddd1" font-size="12" font-weight="500" text-anchor="middle">duckpull.pid</text>
  <rect x="364" y="632" width="152" height="36" rx="7" fill="#1a2820" stroke="#354d42" stroke-width="0.5"/>
  <text x="440" y="654" fill="#c4ddd1" font-size="12" font-weight="500" text-anchor="middle">duckpull.log</text>

  <!-- synced-artifacts/ -->
  <rect x="530" y="588" width="330" height="80" rx="7" fill="#0e2010" stroke="#1d5a2a" stroke-width="0.5"/>
  <text x="695" y="610" fill="#86efac" font-size="13" font-weight="500" text-anchor="middle">synced-artifacts/</text>
  <text x="695" y="628" fill="#3d9e5e" font-size="11" text-anchor="middle">artefatos .duckdb / .parquet</text>
  <text x="695" y="644" fill="#3d9e5e" font-size="11" text-anchor="middle">read-only após sync concluído</text>

  <!-- Arrow: Data → Client -->
  <line x1="450" y1="684" x2="450" y2="710" stroke="#2a3d34" stroke-width="1" marker-end="url(#arrow)"/>

  <!-- ─────────────────────────────────────────── -->
  <!-- LAYER 5: Cliente -->
  <!-- ─────────────────────────────────────────── -->
  <text x="36" y="706" fill="#6b9e84" font-size="11" font-weight="500" letter-spacing="0.08em">CAMADA DE CLIENTE (src/client/ → dist/)</text>
  <rect x="24" y="714" width="852" height="136" rx="10" fill="none" stroke="#1d4d38" stroke-width="1" stroke-dasharray="5 3"/>

  <!-- App.vue -->
  <rect x="40" y="728" width="820" height="44" rx="7" fill="#0e2d22" stroke="#1d6b4a" stroke-width="0.5"/>
  <text x="450" y="746" fill="#7ee8b4" font-size="13" font-weight="500" text-anchor="middle">App.vue (Vue 3 SPA)</text>
  <text x="450" y="762" fill="#3d9e6e" font-size="11" text-anchor="middle">Auth · Config · Artifacts · Sync status · Logs  ·  polling /api/sync/status a cada 3s</text>

  <!-- Vite -->
  <rect x="40" y="784" width="256" height="50" rx="7" fill="#1e1a2e" stroke="#4a3d7a" stroke-width="0.5"/>
  <text x="168" y="805" fill="#c4b8f0" font-size="13" font-weight="500" text-anchor="middle">Vite + vite-plugin-vue</text>
  <text x="168" y="822" fill="#7a6db0" font-size="11" text-anchor="middle">build → dist/index.html</text>

  <!-- index.css -->
  <rect x="310" y="784" width="248" height="50" rx="7" fill="#1a2820" stroke="#354d42" stroke-width="0.5"/>
  <text x="434" y="805" fill="#c4ddd1" font-size="13" font-weight="500" text-anchor="middle">index.css</text>
  <text x="434" y="822" fill="#6b9e84" font-size="11" text-anchor="middle">dark theme · radial bg gradient</text>

  <!-- main.js -->
  <rect x="572" y="784" width="256" height="50" rx="7" fill="#1a2820" stroke="#354d42" stroke-width="0.5"/>
  <text x="700" y="805" fill="#c4ddd1" font-size="13" font-weight="500" text-anchor="middle">main.js</text>
  <text x="700" y="822" fill="#6b9e84" font-size="11" text-anchor="middle">createApp(App).mount('#app')</text>

  <!-- Arrow: Client → Remote API -->
  <line x1="450" y1="850" x2="450" y2="876" stroke="#2a3d34" stroke-width="1" marker-end="url(#arrow)"/>

  <!-- ─────────────────────────────────────────── -->
  <!-- LAYER 6: API Remota -->
  <!-- ─────────────────────────────────────────── -->
  <text x="36" y="872" fill="#6b9e84" font-size="11" font-weight="500" letter-spacing="0.08em">API REMOTA (DuckFlow)</text>
  <rect x="24" y="880" width="852" height="110" rx="10" fill="none" stroke="#7a3d1d" stroke-width="1" stroke-dasharray="5 3"/>

  <!-- GET /artifacts -->
  <rect x="40" y="894" width="258" height="80" rx="7" fill="#2d1910" stroke="#7a3d1d" stroke-width="0.5"/>
  <text x="169" y="916" fill="#f0b483" font-size="13" font-weight="500" text-anchor="middle">GET /artifacts</text>
  <text x="169" y="933" fill="#a0673a" font-size="11" text-anchor="middle">Lista artefatos disponíveis</text>
  <text x="169" y="950" fill="#a0673a" font-size="11" text-anchor="middle">Authorization: Bearer &lt;token&gt;</text>

  <!-- GET /artifacts/:id/meta -->
  <rect x="316" y="894" width="258" height="80" rx="7" fill="#2d1910" stroke="#7a3d1d" stroke-width="0.5"/>
  <text x="445" y="916" fill="#f0b483" font-size="13" font-weight="500" text-anchor="middle">GET /artifacts/:id/meta</text>
  <text x="445" y="933" fill="#a0673a" font-size="11" text-anchor="middle">sha256 · etag · size</text>
  <text x="445" y="950" fill="#a0673a" font-size="11" text-anchor="middle">updated_at · download_url</text>

  <!-- GET /artifacts/:id/download -->
  <rect x="592" y="894" width="268" height="80" rx="7" fill="#2d1910" stroke="#7a3d1d" stroke-width="0.5"/>
  <text x="726" y="916" fill="#f0b483" font-size="13" font-weight="500" text-anchor="middle">GET /artifacts/:id/download</text>
  <text x="726" y="933" fill="#a0673a" font-size="11" text-anchor="middle">streaming binário</text>
  <text x="726" y="950" fill="#a0673a" font-size="11" text-anchor="middle">ETag · Content-Length</text>

  <!-- ─────────────────────────────────────────── -->
  <!-- LEGEND -->
  <!-- ─────────────────────────────────────────── -->
  <rect x="24" y="1000" width="852" height="1" fill="#2a3d34"/>
  <rect x="40" y="1007" width="10" height="10" rx="2" fill="#0e2d22" stroke="#1d6b4a" stroke-width="0.5"/>
  <text x="56" y="1016" fill="#4d7a63" font-size="10">Processo / entrada</text>
  <rect x="180" y="1007" width="10" height="10" rx="2" fill="#0e1e30" stroke="#1d4a6b" stroke-width="0.5"/>
  <text x="196" y="1016" fill="#4d7a63" font-size="10">Dados / DB</text>
  <rect x="290" y="1007" width="10" height="10" rx="2" fill="#221b08" stroke="#7a5a0d" stroke-width="0.5"/>
  <text x="306" y="1016" fill="#4d7a63" font-size="10">Sync / agendamento</text>
  <rect x="440" y="1007" width="10" height="10" rx="2" fill="#2d1910" stroke="#7a3d1d" stroke-width="0.5"/>
  <text x="456" y="1016" fill="#4d7a63" font-size="10">API remota / download</text>
  <rect x="610" y="1007" width="10" height="10" rx="2" fill="#1e1a2e" stroke="#4a3d7a" stroke-width="0.5"/>
  <text x="626" y="1016" fill="#4d7a63" font-size="10">Auth / build</text>
  <rect x="710" y="1007" width="10" height="10" rx="2" fill="#1a2820" stroke="#354d42" stroke-width="0.5"/>
  <text x="726" y="1016" fill="#4d7a63" font-size="10">Infra / OS / utilitários</text>
</svg>
